<svg width="214" height="84" viewBox="0 0 214 84" fill="none" xmlns="http://www.w3.org/2000/svg">
<path d="M40.4482 29.5353C46.0775 35.8938 45.8952 45.639 39.9004 51.7775L20.0342 71.9074L20.0127 71.9308C17.4214 74.7724 15.5188 78.2864 14.2871 81.8439C13.7306 81.4458 13.1981 81.0582 12.7178 80.5666L12.5205 80.3654C6.33327 74.0331 6.33332 63.8599 12.5205 57.5275L12.5195 57.5266L40.4482 29.5353ZM31.0889 1.32245C31.6313 1.71096 32.1509 2.09127 32.6201 2.57147L32.8545 2.81268H33.0459C39.0008 9.1582 38.9259 19.1523 32.8203 25.4055L4.88574 53.5998C-0.740541 47.2412 -0.557382 37.498 5.43652 31.3605L5.4375 31.3615L25.3027 11.2307L25.3057 11.2277C28.0744 8.39398 29.9965 4.88585 31.0889 1.32245Z" fill="url(#flameGradient)" stroke="url(#paint1_linear_227_2)" stroke-width="1.59881"/>
<path d="M114.824 31.5034C107.35 26.8734 96.7289 29.6917 93.7785 30.8995C92.5984 31.3021 92.7951 32.9125 93.3851 34.7243C93.7785 36.3347 94.5653 38.3477 94.5653 38.3477C94.5653 38.3477 102.039 35.5295 107.153 37.3412C108.53 37.7438 109.12 38.7503 108.727 42.1725C108.727 42.1725 98.1057 40.562 92.9917 44.5881C91.2215 45.9972 89.8447 48.8155 89.8447 51.835C89.8447 62.3027 102.236 62.3027 104.4 62.3027C109.317 62.3027 113.251 61.4975 116.004 59.6858C116.791 59.0819 119.151 58.0754 119.151 53.848V39.1529C118.955 36.9386 118.168 33.5164 114.824 31.5034ZM104.203 54.4519C100.269 54.4519 99.8759 52.4389 99.8759 51.6337C99.8759 50.8285 100.663 48.6142 103.81 48.4128C107.153 48.2115 108.53 48.4128 108.53 48.4128V53.6467C108.137 53.6467 106.76 54.4519 104.203 54.4519Z" fill="white"/>
<path d="M183.469 32.913C180.125 29.4909 175.798 29.0883 173.635 29.0883C171.864 29.0883 166.751 29.2896 162.817 32.913C158.49 37.1404 157.899 42.3742 157.899 45.1925C157.899 56.868 165.767 62.3032 175.405 62.3032C176.782 62.3032 180.912 62.3032 184.256 60.6928C185.043 60.2902 185.436 59.8876 185.829 59.6863C186.616 59.0824 185.829 56.868 185.239 55.4589C184.649 53.8485 184.059 53.0433 184.059 53.0433C183.469 53.2446 180.125 54.2511 176.192 54.2511C170.684 54.2511 168.127 51.2316 168.127 49.0172H183.272C185.633 49.0172 187.6 47.2055 187.6 44.5886C187.796 40.5625 186.813 36.1339 183.469 32.913ZM168.521 41.9716C168.521 41.3677 168.914 36.9391 174.225 36.9391C176.192 36.9391 179.142 37.9456 179.142 41.9716H168.521Z" fill="white"/>
<path d="M130.363 20.4323C126.232 20.4323 125.052 21.0362 125.052 21.0362V59.6863C125.052 61.2967 126.822 62.3032 130.363 62.3032C134.493 62.3032 135.673 61.6993 135.673 61.6993V23.2505C135.673 21.4388 133.903 20.4323 130.363 20.4323Z" fill="white"/>
<path d="M147.082 20.4323C142.951 20.4323 141.771 21.0362 141.771 21.0362V59.6863C141.771 61.2967 143.541 62.3032 147.082 62.3032C151.212 62.3032 152.392 61.6993 152.392 61.6993V23.2505C152.392 21.4388 150.622 20.4323 147.082 20.4323Z" fill="white"/>
<path d="M193.107 59.6864C193.107 61.2968 194.877 62.5046 198.418 62.5046C202.548 62.5046 203.728 61.9007 203.728 61.9007V40.9652C203.728 39.5561 204.515 38.3483 206.285 38.3483H212.776C214.349 38.3483 213.956 35.7314 213.956 33.1144C213.956 30.4975 213.759 29.6923 213.563 29.491L213.366 29.2897H203.728C197.237 29.491 193.107 33.1144 193.107 37.5431C193.107 37.5431 193.107 59.0825 193.107 59.6864Z" fill="white"/>
<path d="M84.3377 61.2969C85.3211 60.8943 85.7145 60.693 86.1079 60.4917C87.0913 59.8878 86.3046 57.6734 85.9112 55.8617C85.5178 54.05 84.9277 53.0435 84.9277 53.0435C84.3377 53.2448 83.1575 53.6474 81.1906 53.6474C80.0105 53.6474 77.2568 53.4461 77.2568 50.6278V39.7575H83.5509C84.9277 39.7575 84.731 37.5432 84.731 35.1275C84.731 31.9067 84.3377 31.7054 84.3377 31.7054H77.2568C77.2568 31.7054 77.2568 27.0754 77.2568 26.4715C77.2568 24.8611 75.4866 23.6533 71.9462 23.6533C67.8157 23.6533 66.6356 24.2572 66.6356 24.2572V31.7054C66.6356 31.7054 62.7018 32.5106 61.7183 32.9132C61.7183 32.9132 61.325 34.121 61.325 35.7314C61.325 36.9392 61.5216 39.7575 62.3084 39.7575H66.6356V51.6344C66.6356 55.4591 67.619 58.2773 69.5859 60.0891C71.5528 61.9008 74.5032 62.706 78.0436 62.706C80.2072 62.5047 82.5675 61.9008 84.3377 61.2969Z" fill="white"/>
<defs>
<linearGradient id="flameGradient" x1="22.6685" y1="0" x2="22.6685" y2="83.1382" gradientUnits="userSpaceOnUse">
  <stop offset="0" stop-color="#F9C972"/>
  <stop offset="0.35" stop-color="#F56F10"/>
  <stop offset="0.65" stop-color="#DA2037"/>
  <stop offset="1" stop-color="#DA2037"/>
</linearGradient>
<linearGradient id="paint1_linear_227_2" x1="2.52196e-08" y1="41.8794" x2="45.337" y2="41.259" gradientUnits="userSpaceOnUse">
<stop stop-color="#F56F10"/>
<stop offset="1" stop-color="#F9C972"/>
</linearGradient>
</defs>
</svg>
